<svg width="64" height="64" viewBox="0 0 64 64" fill="none" xmlns="http://www.w3.org/2000/svg">
<path d="M53.6533 10.3431C56.7774 13.4673 56.7774 18.5327 53.6533 21.6569C50.5291 24.781 45.4637 24.781 42.3395 21.6569C39.2153 18.5327 39.2153 13.4673 42.3395 10.3431C45.4637 7.21895 50.5291 7.21895 53.6533 10.3431Z" fill="#303073"/>
<path d="M31.2161 8.09725C19.6886 9.16323 10.6631 18.8609 10.6631 30.6667C10.6631 33.2 11.0787 35.6362 11.8454 37.911C12.1339 38.767 12.2782 39.195 12.3042 39.5238C12.3299 39.8485 12.3105 40.0762 12.2301 40.3919C12.1488 40.7115 11.9692 41.044 11.61 41.7088L7.24823 49.7823C6.62606 50.9339 6.31498 51.5097 6.3846 51.9541C6.44524 52.3411 6.67306 52.6819 7.00753 52.886C7.39153 53.1202 8.04253 53.0529 9.34451 52.9183L23.0006 51.5067C23.414 51.464 23.6209 51.4426 23.8094 51.4498C23.9947 51.4569 24.1256 51.4743 24.3063 51.516C24.4901 51.5583 24.7213 51.6474 25.1835 51.8254C27.7116 52.7994 30.4583 53.3333 33.3297 53.3333C45.1452 53.3333 54.8491 44.2929 55.9018 32.7518M53.6533 10.3431C56.7774 13.4673 56.7774 18.5327 53.6533 21.6569C50.5291 24.781 45.4637 24.781 42.3395 21.6569C39.2153 18.5327 39.2153 13.4673 42.3395 10.3431C45.4637 7.21895 50.5291 7.21895 53.6533 10.3431Z" stroke="#303073" stroke-width="3.4" stroke-linecap="round" stroke-linejoin="round"/>
</svg>
