<svg width="64" height="64" viewBox="0 0 64 64" fill="none" xmlns="http://www.w3.org/2000/svg">
<path d="M34.6667 44C34.6667 52.1002 28.2573 58.6667 20.3509 58.6667C18.7177 58.6667 17.1483 58.3865 15.6861 57.8704C15.1311 57.6746 14.8537 57.5766 14.667 57.5394C14.4705 57.5002 14.3641 57.4894 14.1637 57.488C13.9734 57.4867 13.7554 57.5165 13.3195 57.576L5.33337 58.6667L6.96363 51.3022C7.07048 50.8195 7.1239 50.5782 7.13625 50.3646C7.14915 50.1417 7.14308 50.0178 7.10846 49.7972C7.0753 49.5859 6.97426 49.2766 6.77217 48.658C6.29411 47.1946 6.03513 45.6283 6.03513 44C6.03513 35.8999 12.4445 29.3334 20.3509 29.3334C28.2573 29.3334 34.6667 35.8999 34.6667 44Z" fill="#303073"/>
<path d="M16.2517 29.9435C16.0859 28.8753 15.9999 27.781 15.9999 26.6667C15.9999 14.8846 25.614 5.33337 37.4736 5.33337C49.3332 5.33337 58.9473 14.8846 58.9473 26.6667C58.9473 29.3282 58.4567 31.8759 57.5605 34.2254C57.3743 34.7133 57.2812 34.9573 57.239 35.1478C57.1971 35.3365 57.181 35.4693 57.1764 35.6626C57.1718 35.8576 57.1982 36.0725 57.2512 36.5022L58.3247 45.2228C58.4409 46.1668 58.499 46.6388 58.342 46.982C58.2044 47.2826 57.96 47.5214 57.6563 47.6521C57.3096 47.8011 56.839 47.7322 55.898 47.5942L47.4039 46.3491C46.9604 46.2841 46.7386 46.2516 46.5367 46.2528C46.3369 46.2539 46.1986 46.2687 46.0031 46.3098C45.8055 46.3513 45.553 46.4459 45.048 46.635C42.6925 47.5173 40.1398 48 37.4736 48C36.3585 48 35.2631 47.9156 34.1938 47.7528M20.3509 58.6667C28.2573 58.6667 34.6667 52.1002 34.6667 44C34.6667 35.8999 28.2573 29.3334 20.3509 29.3334C12.4445 29.3334 6.03513 35.8999 6.03513 44C6.03513 45.6283 6.29411 47.1946 6.77217 48.658C6.97426 49.2766 7.0753 49.5859 7.10846 49.7972C7.14308 50.0178 7.14915 50.1417 7.13625 50.3646C7.1239 50.5782 7.07048 50.8195 6.96363 51.3022L5.33337 58.6667L13.3195 57.576C13.7554 57.5165 13.9734 57.4867 14.1637 57.488C14.3641 57.4894 14.4705 57.5002 14.667 57.5394C14.8537 57.5766 15.1311 57.6746 15.6861 57.8704C17.1483 58.3865 18.7177 58.6667 20.3509 58.6667Z" stroke="#303073" stroke-width="3.4" stroke-linecap="round" stroke-linejoin="round"/>
</svg>
