<svg width="64" height="65" viewBox="0 0 64 65" fill="none" xmlns="http://www.w3.org/2000/svg">
<path d="M17.4222 33.9222H46.5778V39.3978H49.4222V31.0778H33.4222V25.3889H30.5778V31.0778H14.5778V39.3978H17.4222V33.9222Z" fill="#303073"/>
<path d="M24.8889 41.3889H7.1111C6.16811 41.3889 5.26374 41.7635 4.59694 42.4303C3.93014 43.0971 3.55554 44.0015 3.55554 44.9445V55.6111C3.55554 56.5541 3.93014 57.4585 4.59694 58.1253C5.26374 58.7921 6.16811 59.1667 7.1111 59.1667H24.8889C25.8319 59.1667 26.7362 58.7921 27.403 58.1253C28.0698 57.4585 28.4444 56.5541 28.4444 55.6111V44.9445C28.4444 44.0015 28.0698 43.0971 27.403 42.4303C26.7362 41.7635 25.8319 41.3889 24.8889 41.3889ZM7.1111 55.6111V44.9445H24.8889V55.6111H7.1111Z" fill="#303073"/>
<path d="M56.8889 41.3889H39.1111C38.1681 41.3889 37.2637 41.7635 36.5969 42.4303C35.9301 43.0971 35.5555 44.0015 35.5555 44.9445V55.6111C35.5555 56.5541 35.9301 57.4585 36.5969 58.1253C37.2637 58.7921 38.1681 59.1667 39.1111 59.1667H56.8889C57.8319 59.1667 58.7362 58.7921 59.403 58.1253C60.0698 57.4585 60.4444 56.5541 60.4444 55.6111V44.9445C60.4444 44.0015 60.0698 43.0971 59.403 42.4303C58.7362 41.7635 57.8319 41.3889 56.8889 41.3889ZM39.1111 55.6111V44.9445H56.8889V55.6111H39.1111Z" fill="#303073"/>
<path d="M23.1111 23.6112H40.8889C41.8319 23.6112 42.7362 23.2365 43.403 22.5698C44.0698 21.903 44.4444 20.9986 44.4444 20.0556V9.38893C44.4444 8.44594 44.0698 7.54157 43.403 6.87477C42.7362 6.20798 41.8319 5.83337 40.8889 5.83337H23.1111C22.1681 5.83337 21.2637 6.20798 20.5969 6.87477C19.9301 7.54157 19.5555 8.44594 19.5555 9.38893V20.0556C19.5555 20.9986 19.9301 21.903 20.5969 22.5698C21.2637 23.2365 22.1681 23.6112 23.1111 23.6112ZM23.1111 9.38893H40.8889V20.0556H23.1111V9.38893Z" fill="#303073"/>
</svg>
