<svg width="64" height="64" viewBox="0 0 64 64" fill="none" xmlns="http://www.w3.org/2000/svg">
<path fill-rule="evenodd" clip-rule="evenodd" d="M36.444 18.652C35.571 19.2573 34.5861 19.6827 33.547 19.9033C32.5078 20.1239 31.4351 20.1353 30.3914 19.9368C29.3478 19.7384 28.3541 19.3341 27.4684 18.7475C26.5827 18.1609 25.8227 17.4038 25.2328 16.5203C24.6428 15.6369 24.2347 14.6447 24.0323 13.6019C23.8299 12.559 23.8373 11.4862 24.0539 10.4462C24.2705 9.40622 24.6921 8.41977 25.2941 7.54445C25.8961 6.66913 26.6664 5.92247 27.56 5.34804C29.3243 4.18268 31.4783 3.7632 33.551 4.1813C35.6237 4.59941 37.4466 5.82108 38.6212 7.57929C39.7958 9.33749 40.2266 11.4892 39.8194 13.5641C39.4121 15.639 38.2 17.4682 36.448 18.652H36.444ZM34.224 8.67604C33.7884 8.36266 33.2942 8.14014 32.7708 8.02172C32.2474 7.9033 31.7055 7.89141 31.1774 7.98675C30.6493 8.08209 30.1458 8.28272 29.6969 8.57668C29.2479 8.87064 28.8627 9.25193 28.5642 9.69785C28.2657 10.1438 28.0599 10.6452 27.9592 11.1723C27.8585 11.6994 27.8648 12.2413 27.9779 12.7659C28.091 13.2905 28.3084 13.787 28.6173 14.2258C28.9262 14.6645 29.3203 15.0367 29.776 15.32C30.6565 15.8549 31.7093 16.0294 32.7153 15.8073C33.7212 15.5851 34.6027 14.9835 35.176 14.1276C35.7493 13.2717 35.9704 12.2276 35.793 11.2128C35.6157 10.198 35.0536 9.29075 34.224 8.68004V8.67604ZM44.664 8.79604C45.8177 8.02005 47.2058 7.67059 48.5894 7.80786C49.9729 7.94512 51.2653 8.5605 52.244 9.54804C52.9414 10.251 53.4557 11.1144 53.7416 12.0624C54.0276 13.0105 54.0766 14.0142 53.8843 14.9856C53.692 15.957 53.2643 16.8663 52.6387 17.6339C52.0131 18.4014 51.2087 19.0038 50.296 19.388C49.2001 19.8474 47.9919 19.9687 46.8266 19.7364C45.6612 19.504 44.5919 18.9286 43.756 18.084C43.1273 17.4521 42.6461 16.689 42.3467 15.8494C42.0474 15.0097 41.9374 14.1143 42.0245 13.2272C42.1117 12.34 42.3938 11.4831 42.8508 10.7178C43.3078 9.95242 43.9284 9.29756 44.668 8.80004L44.664 8.79604ZM46.584 15.236C46.9596 15.61 47.4683 15.8195 47.9983 15.8183C48.2607 15.8178 48.5204 15.7655 48.7626 15.6646C49.0049 15.5637 49.2249 15.416 49.41 15.23C49.5952 15.0441 49.7419 14.8235 49.8418 14.5808C49.9417 14.3382 49.9929 14.0782 49.9923 13.8158C49.9917 13.5534 49.9395 13.2936 49.8386 13.0514C49.7376 12.8092 49.59 12.5892 49.404 12.404C49.0338 12.0262 48.5289 11.8105 48 11.804C47.7364 11.804 47.4753 11.8562 47.2319 11.9574C46.9884 12.0587 46.7674 12.2071 46.5815 12.3941C46.3957 12.5811 46.2486 12.803 46.1488 13.047C46.049 13.291 45.9984 13.5524 46 13.816C45.9985 14.0802 46.0493 14.3421 46.1496 14.5865C46.2498 14.8309 46.3975 15.049 46.584 15.236ZM12.76 49.948H20V53.968H12.76C11.4929 53.9553 10.2822 53.442 9.39201 52.54C8.9481 52.0925 8.59668 51.5619 8.35784 50.9785C8.119 50.3951 7.99741 49.7704 8.00001 49.14V41.9C7.46159 41.8813 6.9325 41.7541 6.44448 41.5259C5.95646 41.2977 5.51956 40.9732 5.16001 40.572C4.7771 40.1865 4.47676 39.7269 4.27732 39.2215C4.07788 38.716 3.98353 38.1752 4.00001 37.632V28.904C4.01201 27.016 4.76001 25.212 6.08001 23.872C7.39601 22.548 9.17601 21.792 11.04 21.78H18.4C17.4062 22.9616 16.6582 24.3297 16.2 25.804H11.04C10.2283 25.8281 9.45619 26.1599 8.88001 26.732C8.31559 27.3142 7.99996 28.0932 8.00001 28.904V37.832H12V49.136C11.9903 49.245 12.003 49.3549 12.0374 49.4588C12.0718 49.5627 12.1271 49.6584 12.2 49.74C12.3608 49.8643 12.5569 49.9343 12.76 49.94V49.948ZM41.96 23.876C41.3048 23.216 40.526 22.6916 39.6681 22.3326C38.8102 21.9737 37.89 21.7873 36.96 21.784H27.04C25.1757 21.8011 23.3934 22.5529 22.08 23.876C20.76 25.216 20.012 27.02 20 28.908V41.62C19.9944 42.7115 20.4098 43.7632 21.16 44.556C21.5196 44.9572 21.9565 45.2817 22.4445 45.5099C22.9325 45.7381 23.4616 45.8653 24 45.884V55.176C23.9958 55.8103 24.1174 56.4392 24.3577 57.0262C24.598 57.6132 24.9523 58.1468 25.4 58.596C26.12 59.268 27.028 59.704 28 59.844H36C37.1251 59.6963 38.1559 59.138 38.8943 58.2763C39.6326 57.4147 40.0264 56.3105 40 55.176V45.88C40.5384 45.8613 41.0675 45.7341 41.5555 45.5059C42.0436 45.2777 42.4805 44.9532 42.84 44.552C43.2224 44.1669 43.5225 43.7081 43.7219 43.2033C43.9213 42.6986 44.016 42.1585 44 41.616V28.904C44.0028 27.0248 43.2707 25.2229 41.96 23.876ZM40 41.816H36V55.176C35.997 55.3871 35.9107 55.5883 35.76 55.736C35.6918 55.8168 35.6056 55.8806 35.5084 55.9223C35.4112 55.9639 35.3056 55.9823 35.2 55.976H28.76C28.551 55.9663 28.3531 55.8789 28.2051 55.7309C28.0572 55.583 27.9697 55.3851 27.96 55.176V41.816H24V28.904C24 28.092 24.316 27.312 24.88 26.732C25.4562 26.1599 26.2283 25.8281 27.04 25.804H36.96C37.5657 25.8157 38.1549 26.0035 38.6557 26.3445C39.1564 26.6854 39.5471 27.1648 39.78 27.724C39.9271 28.1 40.0018 28.5004 40 28.904V41.816ZM51.24 53.964H44V49.944H51.2C51.4031 49.9383 51.5992 49.8683 51.76 49.744C51.8406 49.6653 51.9036 49.5704 51.9449 49.4657C51.9863 49.3609 52.0051 49.2486 52 49.136V37.832H56V28.904C56.0001 28.0932 55.6844 27.3142 55.12 26.732C54.5438 26.1599 53.7717 25.8281 52.96 25.804H47.8C47.3418 24.3297 46.5938 22.9616 45.6 21.78H52.96C54.8243 21.7971 56.6066 22.5489 57.92 23.872C59.24 25.212 59.988 27.016 60 28.904V37.632C60 38.724 59.588 39.772 58.844 40.564C58.1 41.36 57.084 41.836 56 41.896V49.136C56 50.412 55.5 51.632 54.608 52.536C53.7179 53.438 52.5072 53.9513 51.24 53.964ZM16 7.78004C14.8092 7.7765 13.6447 8.12974 12.6566 8.79421C11.6684 9.45868 10.9019 10.4039 10.456 11.508C10.0057 12.6108 9.88923 13.8215 10.1211 14.9899C10.3529 16.1582 10.9228 17.2328 11.76 18.08C12.5983 18.9255 13.6695 19.5019 14.837 19.7355C16.0044 19.9692 17.215 19.8496 18.3141 19.3919C19.4131 18.9342 20.3509 18.1593 21.0074 17.1661C21.664 16.1729 22.0095 15.0066 22 13.816C22 12.216 21.368 10.68 20.24 9.54804C19.684 8.98928 19.0234 8.54555 18.2959 8.24218C17.5684 7.93882 16.7882 7.78179 16 7.78004ZM16 15.828C15.7364 15.828 15.4753 15.7759 15.2319 15.6747C14.9884 15.5734 14.7674 15.425 14.5815 15.238C14.3957 15.051 14.2486 14.8291 14.1488 14.5851C14.049 14.3411 13.9984 14.0797 14 13.816C14.001 13.2848 14.2117 12.7755 14.5862 12.3987C14.9607 12.022 15.4688 11.8083 16 11.804C16.5293 11.8144 17.0338 12.03 17.407 12.4055C17.7802 12.7809 17.9928 13.2867 18 13.816C17.999 14.3473 17.7883 14.8566 17.4138 15.2334C17.0393 15.6101 16.5312 15.8238 16 15.828Z" fill="#303073"/>
</svg>
