<svg width="64" height="65" viewBox="0 0 64 65" fill="none" xmlns="http://www.w3.org/2000/svg">
<path d="M33.488 8.45194C32.5177 8.12356 31.4663 8.12356 30.496 8.45194L12.4267 14.5719C11.8381 14.7631 11.3183 15.1222 10.9312 15.605C10.5441 16.0878 10.3066 16.6732 10.248 17.2893C9.34933 28.5586 10.9093 36.8919 14.6133 43.1879C18.1973 49.2813 23.9307 53.7106 31.992 57.0119C40.0613 53.7106 45.8 49.2813 49.384 43.1879C53.0907 36.8946 54.6507 28.5586 53.752 17.2893C53.6933 16.6732 53.4559 16.0878 53.0688 15.605C52.6817 15.1222 52.1619 14.7631 51.5733 14.5719L33.488 8.45194ZM29.2133 4.66527C31.0153 4.05438 32.9681 4.05345 34.7707 4.66261L52.856 10.7826C54.1844 11.225 55.3544 12.0465 56.2215 13.1459C57.0887 14.2452 57.6151 15.5743 57.736 16.9693C58.6773 28.7293 57.096 37.9719 52.832 45.2173C48.5547 52.4839 41.736 57.4786 32.7253 61.0279C32.2541 61.2137 31.7299 61.2137 31.2587 61.0279C22.256 57.4786 15.44 52.4839 11.1653 45.2173C6.90399 37.9719 5.32266 28.7266 6.26133 16.9693C6.38219 15.5743 6.90865 14.2452 7.7758 13.1459C8.64295 12.0465 9.81288 11.225 11.1413 10.7826L29.2133 4.66527Z" fill="#303073"/>
<path opacity="0.5" d="M32 53.8334C45.4187 48.3934 51.7493 38.852 50.5147 20.8547C50.376 18.8094 48.9787 17.0787 47.04 16.404L34.1867 11.9294C33.4836 11.6846 32.7445 11.5593 32 11.5587V53.8334Z" fill="#303073"/>
</svg>
