<svg width="64" height="65" viewBox="0 0 64 65" fill="none" xmlns="http://www.w3.org/2000/svg">
<path d="M23.9961 42.4999C23.1344 42.5018 22.2936 42.2348 21.5909 41.7361C20.8883 41.2374 20.3587 40.5319 20.0761 39.7179L18.4941 34.8559C18.121 33.7215 17.4858 32.691 16.6401 31.8479C15.7955 30.9998 14.7649 30.3602 13.6301 29.9799L8.82806 28.4179C8.2151 28.2122 7.65867 27.8661 7.20309 27.4073C6.74751 26.9485 6.40537 26.3897 6.20394 25.7753C6.00251 25.1609 5.94735 24.5079 6.04286 23.8685C6.13837 23.229 6.3819 22.6207 6.75406 22.0919C7.25006 21.3839 7.95406 20.8479 8.77006 20.5599L13.6481 18.9799C14.7429 18.5934 15.7362 17.9643 16.5536 17.1397C17.371 16.315 17.9913 15.3162 18.3681 14.2179L19.9641 9.30994C20.2441 8.47594 20.7841 7.75394 21.5041 7.24794C22.2094 6.76026 23.0465 6.49902 23.9041 6.49902C24.7616 6.49902 25.5987 6.76026 26.3041 7.24794C27.0041 7.74194 27.5321 8.43994 27.8161 9.24794L29.4061 14.1279C29.7827 15.2591 30.4181 16.2868 31.2618 17.1291C32.1056 17.9714 33.1343 18.6052 34.2661 18.9799L39.0761 20.5399C39.9481 20.8179 40.7061 21.3699 41.2401 22.1139C41.7356 22.8135 42.0017 23.6497 42.0017 24.5069C42.0017 25.3642 41.7356 26.2004 41.2401 26.8999C40.7461 27.5999 40.0481 28.1299 39.2401 28.4179L34.3541 30.0059C33.2258 30.3801 32.201 31.0138 31.3621 31.8559C30.5201 32.7019 29.8821 33.7319 29.5041 34.8639L27.9441 39.6679C27.6495 40.4943 27.1146 41.2138 26.4081 41.7339C25.7041 42.2339 24.8601 42.5039 23.9961 42.4999ZM47.0081 60.4999C46.2879 60.5027 45.5848 60.2806 44.9968 59.8648C44.4089 59.4489 43.9653 58.8599 43.7281 58.1799L42.6321 54.8279C42.4085 54.1391 42.0254 53.5128 41.5141 52.9999C40.9997 52.4877 40.3742 52.101 39.6861 51.8699L36.3801 50.7999C35.6791 50.561 35.072 50.1058 34.6461 49.4999C34.333 49.0618 34.1265 48.5568 34.0427 48.0249C33.959 47.493 34.0004 46.9489 34.1637 46.4358C34.3269 45.9228 34.6076 45.4548 34.9833 45.0691C35.359 44.6834 35.8194 44.3906 36.3281 44.2139L39.6901 43.1179C40.3628 42.8808 40.9721 42.4925 41.4711 41.9827C41.97 41.473 42.3453 40.8556 42.5681 40.1779L43.6381 36.8779C43.8081 36.3616 44.0973 35.8926 44.4822 35.5088C44.8671 35.1249 45.3369 34.837 45.8537 34.6684C46.3704 34.4998 46.9196 34.4552 47.4569 34.5381C47.9941 34.6211 48.5042 34.8293 48.9461 35.1459C49.5361 35.5599 49.9801 36.1499 50.2141 36.8299L51.3061 40.1819C51.5364 40.8663 51.9226 41.4877 52.4342 41.9972C52.9458 42.5067 53.5688 42.8904 54.2541 43.1179L57.5641 44.1979C58.2616 44.4144 58.8729 44.8458 59.3106 45.4306C59.7482 46.0153 59.9899 46.7234 60.001 47.4537C60.0121 48.184 59.792 48.8991 59.3723 49.4968C58.9526 50.0946 58.3547 50.5444 57.6641 50.7819L54.3181 51.8739C53.6319 52.0992 53.0084 52.4829 52.4981 52.9939C51.9878 53.5075 51.6025 54.1316 51.3721 54.8179L50.2961 58.1179C50.0555 58.8175 49.6006 59.4236 48.9961 59.8499C48.4163 60.2665 47.7219 60.4935 47.0081 60.4999Z" fill="#303073"/>
</svg>
